<svg width="23" height="17" fill="none" xmlns="http://www.w3.org/2000/svg"><path d="M20.427 8.415h-.387v-4.48A3.471 3.471 0 0016.579.462H6.044a3.471 3.471 0 00-3.46 3.473v4.48h-.388A1.962 1.962 0 00.24 10.378v2.656a1.962 1.962 0 001.956 1.962h.824v.558c.001.53.43.96.959.961h1.514a.96.96 0 00.958-.96v-.559h9.721v.558c.001.53.43.96.959.961h1.514a.96.96 0 00.958-.96v-.559h.824a1.962 1.962 0 001.957-1.962v-2.656a1.962 1.962 0 00-1.957-1.963zM3.486 3.935a2.566 2.566 0 012.558-2.567H16.58a2.566 2.566 0 012.558 2.567v4.48h-.829v-1.57c0-.633-.513-1.147-1.144-1.148h-4.331a1.147 1.147 0 00-1.144 1.148v1.57h-.755v-1.57c0-.633-.512-1.147-1.144-1.148H5.46a1.149 1.149 0 00-1.145 1.148v1.57h-.83v-4.48zm13.919 4.48h-4.813v-1.57c0-.133.108-.242.241-.242h4.33c.134 0 .242.109.242.242v1.57zm-7.374 0H5.218v-1.57c0-.133.108-.242.242-.242h4.33c.133 0 .241.109.241.242v1.57zm-7.835.906h18.23c.582 0 1.053.473 1.054 1.057v1.986H1.143v-1.986c0-.584.472-1.056 1.053-1.057zm3.352 6.233c0 .03-.025.055-.055.055H3.978a.055.055 0 01-.054-.055v-.558h1.624v.558zm13.152 0c0 .03-.025.055-.055.055H17.13a.055.055 0 01-.055-.055v-.558H18.7v.558zm1.727-1.463H2.197a1.055 1.055 0 01-1.026-.821h20.281c-.11.48-.535.82-1.025.82z" fill="#757575" stroke="#757575" stroke-width=".2"/></svg>