<svg width="24" height="24" fill="none" xmlns="http://www.w3.org/2000/svg"><g opacity=".3" fill-rule="evenodd" clip-rule="evenodd" fill="#3E3C50"><path d="M12 20.5a8.5 8.5 0 100-17 8.5 8.5 0 000 17zM22 12c0 5.523-4.477 10-10 10S2 17.523 2 12 6.477 2 12 2s10 4.477 10 10z"/><path d="M14.937 9.063l-4.06 1.522a.5.5 0 00-.292.293l-1.522 4.059 4.06-1.522a.5.5 0 00.292-.293l1.522-4.059zm.503-1.79L10.351 9.18a2 2 0 00-1.17 1.17l-1.909 5.09c-.301.803.484 1.588 1.288 1.286l5.089-1.908a2 2 0 001.17-1.17l1.908-5.09c.302-.803-.483-1.588-1.287-1.287z"/></g></svg>