<svg width="24" height="24" fill="none" xmlns="http://www.w3.org/2000/svg"><path d="M12 22c-4 0-8-2.7-8-8 0-1.7.6-4 1.2-5.7.122-.345.467-.6.8-.6.436 0 .749.298.9.6.2.6.4 1.2.6 1.7.36.959.8 1.5 1.5 2-.416-1.357-.41-2.63 0-4 .9-3 2.5-4.5 3.7-5.3l.2-.1c.2-.1.5 0 .7.1.2.1.4.4.4.8 0 1 .576 3.076 2 4.5 1.849 1.6 4 3.6 4 7 0 3.9-3.6 7-8 7zM6.1 10.5c-.4 1.4-.6 2.6-.6 3.5 0 4.5 3.4 6.5 6.5 6.5 3.6 0 6.5-2.5 6.5-5.5 0-4-3.5-5-5-8-.503-.85-.576-1.456-.8-2.5-.8.8-1.7 2-2.2 3.8-.388 1.165-.31 2.3-.1 3.2.2.6 0 1.2-.4 1.6-.5.4-1.1.5-1.7.2-1.3-.8-1.8-1.8-2.2-2.8z" fill="#000" opacity=".3"/></svg>