<svg width="24" height="24" fill="none" xmlns="http://www.w3.org/2000/svg"><g opacity=".3" fill="#000"><path d="M18.052 14.762a.85.85 0 00.353.306A3.25 3.25 0 0120.25 18v2a.75.75 0 001.5 0v-2A4.75 4.75 0 0017 13.25c-.109 0-.158.14-.076.211a6.03 6.03 0 011.128 1.301z"/><path fill-rule="evenodd" clip-rule="evenodd" d="M7 14.75A3.25 3.25 0 003.75 18v2a.75.75 0 01-1.5 0v-2A4.75 4.75 0 017 13.25h6A4.75 4.75 0 0117.75 18v2a.75.75 0 01-1.5 0v-2A3.25 3.25 0 0013 14.75H7z"/><path d="M14.87 9.557c.09-.169.23-.304.396-.4a2.499 2.499 0 000-4.314 1.03 1.03 0 01-.396-.4 5.514 5.514 0 00-.933-1.283C13.88 3.1 13.917 3 14 3a4 4 0 010 8c-.083 0-.12-.1-.063-.16.37-.378.685-.81.933-1.283z"/><path fill-rule="evenodd" clip-rule="evenodd" d="M10 9.5a2.5 2.5 0 100-5 2.5 2.5 0 000 5zm0 1.5a4 4 0 100-8 4 4 0 000 8z"/></g></svg>