<svg width="22" height="17" fill="none" xmlns="http://www.w3.org/2000/svg"><path d="M21.16 15.873h-.922v-3.532a.322.322 0 00-.32-.32h-2.163V4.635a.322.322 0 00-.32-.321h-2.16V.783a.322.322 0 00-.32-.321h-7.44a.32.32 0 00-.32.32v3.533h-2.16a.32.32 0 00-.32.32v7.385H2.552a.32.32 0 00-.32.321v3.532H1.32a.32.32 0 00-.32.321.322.322 0 00.32.321h19.84a.32.32 0 00.32-.32.322.322 0 00-.32-.322zM17.134 4.957v7.063h-.32V5.278h-1.228v6.742h-.32V4.957h1.868zm-.62 2.89v1.605h-.618V7.846h.618zm-.618-.643V5.6h.618v1.605h-.618zm.618 2.89v1.605h-.618v-1.605h.618zM2.862 12.663h1.863v3.21H2.862v-3.21zm2.484-7.706h1.859v10.916h-1.86V4.957zm2.48-3.853h1.241v8.669a.322.322 0 00.31.399.32.32 0 00.311-.4V1.105h4.966V12.02H10.31a.32.32 0 00-.32.321v3.532H7.826V1.103zm2.793 11.558h8.999v3.211h-8.999v-3.21z" fill="#757575" stroke="#757575" stroke-width=".2"/><path d="M5.656 5.278v6.742h1.238V5.278H5.656zm.928 6.421h-.618v-1.605h.618v1.605zm0-2.247h-.618V7.846h.618v1.606zm0-2.248h-.618V5.6h.618v1.605z" fill="#757575" stroke="#757575" stroke-width=".2"/></svg>