<svg width="19" height="17" fill="none" xmlns="http://www.w3.org/2000/svg"><path d="M17.344 1.406C16.462.542 15.244.11 13.687.11c-.43 0-.87.075-1.317.225-.448.15-.865.352-1.25.606-.386.254-.717.493-.995.716-.278.223-.542.46-.792.71a9.648 9.648 0 00-.791-.71c-.278-.223-.61-.461-.995-.716a5.325 5.325 0 00-1.25-.606A4.142 4.142 0 004.979.11c-1.556 0-2.774.432-3.656 1.296C.44 2.27 0 3.47 0 5.001c0 .467.082.948.245 1.443.163.494.349.916.557 1.264.208.349.445.688.708 1.02.264.33.457.558.579.684.121.125.217.216.286.272l6.5 6.291a.623.623 0 00.458.189c.18 0 .334-.063.459-.189l6.49-6.27C17.871 8.108 18.666 6.54 18.666 5c0-1.533-.441-2.73-1.323-3.595zm-1.969 7.316l-6.042 5.842-6.052-5.853c-1.298-1.302-1.947-2.54-1.947-3.71 0-.564.074-1.062.223-1.494.15-.432.34-.775.573-1.03a2.77 2.77 0 01.85-.622c.333-.16.66-.268.979-.324a6.01 6.01 0 011.02-.083c.361 0 .75.089 1.167.266.417.178.8.401 1.15.67.352.268.652.518.902.752.25.233.458.447.625.643.125.153.295.23.51.23a.624.624 0 00.51-.23c.168-.196.376-.41.626-.643.25-.234.55-.484.9-.753a5.32 5.32 0 011.152-.669c.416-.177.806-.266 1.167-.266.36 0 .7.028 1.02.083.32.056.646.164.98.324.333.16.616.368.849.622.232.255.423.598.573 1.03.149.432.223.93.223 1.494 0 1.17-.652 2.411-1.958 3.721z" fill="#3246D3"/></svg>