<svg width="10" height="11" fill="none" xmlns="http://www.w3.org/2000/svg"><path d="M9.929 4.49a.37.37 0 00-.379-.308.375.375 0 00-.363.326 3.38 3.38 0 01-.168.681 4.232 4.232 0 01-1.434 2.005 4.21 4.21 0 01-2.303.862 2.908 2.908 0 01-.283.014A1.123 1.123 0 003.874 9.2 1.131 1.131 0 005 10.327a4.957 4.957 0 003.238-1.184 4.988 4.988 0 001.69-3.013 4.753 4.753 0 000-1.64zM6.125 1.423A1.132 1.132 0 005 .294a4.957 4.957 0 00-3.238 1.184A4.988 4.988 0 00.072 4.49a4.753 4.753 0 000 1.64.376.376 0 00.368.309h.01a.375.375 0 00.363-.326 3.37 3.37 0 01.168-.681A4.256 4.256 0 012.53 3.345 4.233 4.233 0 015 2.552a1.125 1.125 0 001.125-1.13z" fill="#757575"/></svg>