<svg width="12" height="11" fill="none" xmlns="http://www.w3.org/2000/svg"><path d="M10.894 2.116C8.07.43 5.236.297 2.697 1.706 1.245 2.505.224 3.829.035 5.189A3.127 3.127 0 00.67 7.573a8.515 8.515 0 013.467-3.475.22.22 0 01.328.252.22.22 0 01-.112.133C1.478 6.09.542 8.504.009 10.663c0 .048.015.095.044.133.083.106.229.084.497.088h.475c.48 0 .484-.031.515-.186.133-.665.34-1.314.616-1.933 2.138.945 5.073-.442 6.3-1.925a6.396 6.396 0 001.079-2.128c.299-.821.585-1.616 1.377-2.207a.221.221 0 000-.367l-.018-.022z" fill="#757575"/></svg>