<svg width="16" height="17" fill="none" xmlns="http://www.w3.org/2000/svg"><path d="M14.24.863h-12a1.601 1.601 0 00-1.6 1.605v12.04c0 .426.169.834.469 1.135.3.301.707.47 1.131.47h12a1.598 1.598 0 001.6-1.605V2.468a1.602 1.602 0 00-1.6-1.605zm-12 13.922a.275.275 0 01-.275-.277V7.836h6.65a.274.274 0 01.275.276v6.673H2.24zm12.275-.277a.277.277 0 01-.275.277h-4.025V8.112a1.597 1.597 0 00-1.6-1.605h-6.65V2.468a.277.277 0 01.275-.276h12a.274.274 0 01.275.276v12.04z" fill="#757575" stroke="#757575" stroke-width=".2"/></svg>