<svg width="49" height="49" fill="none" xmlns="http://www.w3.org/2000/svg"><g filter="url(#filter0_d)"><circle cx="24.465" cy="20" r="17.879" fill="#FF6647"/><circle cx="24.465" cy="20" r="18.931" stroke="#fff" stroke-width="2.103"/></g><path d="M28.483 12.644h-7.92c-.771 0-1.402.701-1.402 1.559v13.606c0 .37.193.72.49.877a.816.816 0 00.93-.117l.017-.02 3.925-3.684 3.925 3.684.018.02a.84.84 0 00.543.214.739.739 0 00.386-.117c.297-.156.49-.506.49-.877V14.203c0-.858-.63-1.56-1.402-1.56z" fill="#fff"/><defs><filter id="filter0_d" x=".276" y=".017" width="48.379" height="48.379" filterUnits="userSpaceOnUse" color-interpolation-filters="sRGB"><feFlood flood-opacity="0" result="BackgroundImageFix"/><feColorMatrix in="SourceAlpha" values="0 0 0 0 0 0 0 0 0 0 0 0 0 0 0 0 0 0 127 0" result="hardAlpha"/><feOffset dy="4.207"/><feGaussianBlur stdDeviation="2.103"/><feColorMatrix values="0 0 0 0 1 0 0 0 0 0.4 0 0 0 0 0.278431 0 0 0 0.25 0"/><feBlend in2="BackgroundImageFix" result="effect1_dropShadow"/><feBlend in="SourceGraphic" in2="effect1_dropShadow" result="shape"/></filter></defs></svg>